<svg width="144" height="132" viewBox="0 0 144 132" fill="none" xmlns="http://www.w3.org/2000/svg">
<path d="M111.248 132C106.311 132 105.385 131.847 101.527 130.313C89.3379 125.098 86.5606 112.06 95.5098 102.856L97.67 100.709L95.6641 99.7885C88.1036 96.414 84.709 87.0573 88.8751 80.3082C90.1094 77.854 94.7383 73.4058 95.6641 73.4058C96.5899 73.4058 96.2813 71.8719 94.8926 69.8778C92.8868 66.9635 92.2696 64.5093 92.8868 60.3678C93.0411 58.5271 93.504 56.5331 93.8126 55.9195C94.1212 55.306 93.0411 55.7661 91.3438 57.3C89.8008 58.6805 87.1778 60.6746 85.4805 61.5949C82.7032 63.2822 82.7032 63.2822 83.629 64.3559C87.1778 68.0372 88.4122 73.7125 87.4864 79.8481C86.5606 84.7565 85.3262 86.9039 81.4688 90.1251L78.2286 93.0394L80.543 94.5733C85.3262 97.4877 88.2579 102.703 88.8751 109.299C89.4922 114.667 88.5665 117.582 84.8633 121.876C82.086 125.251 81.3145 125.711 77.1485 127.398C71.5938 129.546 65.5762 130.159 62.336 128.932C61.2559 128.319 60.3301 127.705 60.1758 127.552C60.0215 127.245 58.9414 127.398 57.5528 127.705C50.6094 130.159 40.8887 123.87 39.3457 116.048L39.0371 114.054L37.9571 115.281C37.1856 116.048 35.4883 117.275 34.0996 118.042C32.2481 118.809 31.3223 119.729 31.168 120.496C30.8594 122.49 28.8535 124.637 26.6934 125.404C25.6133 125.711 23.7617 126.478 22.6817 127.092C19.75 128.472 13.5781 128.472 9.72071 126.938C5.4004 125.404 3.39453 123.717 2.31445 120.956C1.08008 117.888 1.54297 115.587 4.16602 111.446C5.2461 109.912 6.01758 108.225 6.01758 107.611C6.01758 107.151 4.9375 105.617 3.70313 104.544C0.617188 101.629 0 99.7885 0 94.1132V89.5115L3.08594 86.5971C4.62891 85.0633 6.32618 83.6828 6.48047 83.6828C7.40625 83.6828 7.25196 81.2286 6.32618 80.7684C5.0918 80.3082 1.23438 74.4795 0.617188 72.0253C-0.308595 68.9575 -0.154297 62.9754 0.925781 60.3678C2.46875 56.5331 4.16602 54.539 8.02344 52.6984L12.0352 50.8577C12.1895 50.7043 11.7266 50.2442 10.9551 49.784C8.48633 48.0967 5.40039 45.1824 4.62891 43.6485C4.16602 42.8815 3.85742 41.0409 3.85742 39.8138C3.85742 37.0528 5.40039 35.0588 9.25782 33.0647C12.4981 31.3774 13.2695 29.5368 12.1895 26.3156C9.875 19.7199 12.8066 11.8972 19.75 6.37519C20.9844 5.30147 22.836 4.07437 23.6074 3.6142C27.6192 1.62016 37.6485 1.00661 41.9688 2.54049C45.0547 3.46081 48.9121 7.29552 50.918 11.5904C51.6895 13.2777 52.6153 14.5048 52.7696 14.5048C52.9239 14.5048 53.8496 13.431 54.7754 11.8972C58.17 6.83535 63.2618 3.30743 70.0508 1.15999C72.3653 0.546441 74.834 0.0862742 75.6055 0.0862742C77.3028 0.0862742 82.3946 1.31338 84.709 2.3871C87.1778 3.30743 93.0411 9.28956 93.9669 11.7438C95.2012 14.6581 95.9727 14.3514 100.139 10.0565C104.459 5.60825 108.625 3.00066 114.488 1.15999C119.734 -0.52727 126.061 -0.373884 130.072 1.62016C134.856 3.92098 139.022 10.67 139.484 17.5725C139.793 20.6403 139.484 21.8674 137.941 27.3894C137.479 29.23 137.479 29.9969 138.096 31.0707C138.559 31.991 138.559 32.9113 138.25 34.1384C137.787 35.6723 137.941 36.2859 139.33 38.2799C143.805 44.8756 145.039 55.7661 142.262 62.5152C141.336 64.5093 140.256 66.6567 139.484 67.2702C138.867 68.0372 138.096 69.7245 137.633 71.1049L137.016 73.7125L139.33 76.1668C140.565 77.5472 142.107 80.1548 142.879 81.9955C144.731 86.7505 144.268 91.9657 141.645 97.0275C139.33 101.322 137.633 103.316 135.164 104.544C131.77 106.231 130.998 107.918 130.998 112.673C130.844 120.956 127.604 126.631 120.66 130.006C116.803 132 116.34 132 111.248 132ZM117.111 128.319C124.209 126.171 128.375 120.649 128.529 113.44C128.529 110.219 128.375 109.912 127.295 109.759C125.598 109.452 123.283 106.538 123.283 104.544C123.283 102.089 124.518 100.402 126.832 98.8682C129.609 97.4877 131.615 97.6411 133.775 99.7885L135.318 101.169L136.861 99.6351C137.787 98.8682 139.176 96.7207 139.947 94.8801C142.879 88.7446 141.645 81.9955 137.17 77.5472C135.627 76.3201 135.318 76.1668 133.93 76.6269C131.77 77.5472 130.072 77.3939 129.147 76.3201C127.295 74.3261 128.529 68.8041 130.998 67.577C131.615 67.1169 133.004 66.9635 134.238 67.1169C135.627 67.1169 136.707 66.8101 137.479 66.1965C138.867 64.9694 140.565 60.9813 141.336 56.8399C141.953 53.7721 141.799 53.0052 140.719 49.0171C139.33 43.1883 136.861 38.5867 135.473 38.7401L133.158 39.2002C132.233 39.3536 131.307 39.0468 130.227 38.2799C128.992 37.3596 128.838 36.746 128.838 34.752C128.838 33.3715 128.992 31.8376 129.301 31.224C129.918 30.1503 132.541 28.6165 134.084 28.6165C134.856 28.6165 135.318 27.8495 136.09 25.5487C138.404 16.959 135.473 7.90906 129.147 4.53453C126.524 3.00066 125.906 3.00066 120.969 3.00066C115.568 3.00066 115.26 3.00066 110.631 5.30147C106.773 7.14212 105.076 8.36923 101.99 11.437C99.3672 14.198 98.2872 15.4251 98.5958 16.0386C100.602 20.9471 98.1329 25.3953 93.8126 24.6284C91.961 24.1682 90.2637 22.0208 90.2637 20.0267C90.2637 19.2598 90.7266 17.7259 91.3438 16.3454L92.5782 14.0446L91.1895 12.0505C89.3379 8.8294 84.709 5.14809 81.6231 4.07437C77.6114 2.84726 74.9883 2.69387 70.668 3.92098C67.7364 4.53453 65.4219 5.60825 62.7989 7.44891C58.4786 10.3633 55.084 14.8115 56.0098 16.0386C56.3184 16.3454 56.7813 18.1861 56.9356 19.8733C57.2442 22.9411 57.0899 23.2479 55.5469 24.7817C53.8496 26.469 51.5352 26.9292 50.7637 25.8555C50.6094 25.5487 49.9922 25.5487 49.5293 25.7021C48.1407 26.0089 47.2149 24.3216 47.2149 21.2538C47.2149 18.953 48.4492 15.8852 49.5293 15.5785C50.6094 15.1183 48.1407 10.5167 45.6719 8.06246C41.9688 4.53453 40.5801 4.07437 35.334 4.07437C28.8535 4.22775 24.8418 5.45486 20.9844 8.36923C15.8926 12.3573 13.1152 17.4191 13.1152 22.6343C13.1152 26.3156 13.4238 26.9292 15.7383 26.6224C17.5899 26.3156 17.8984 26.6224 19.4414 28.3097C22.2188 31.3774 21.7559 34.752 18.5156 36.4392C16.6641 37.3596 14.9668 37.2062 13.2695 35.5189C12.1895 34.5986 11.8809 34.4452 10.3379 35.0588C6.63477 36.5926 5.86328 41.1943 8.79493 44.5688C11.418 47.4832 12.3438 47.79 14.1953 46.5629C16.0469 45.029 19.5957 45.029 20.6758 46.2561C21.1387 46.7162 21.4473 48.4035 21.4473 50.3976C21.4473 53.3119 21.293 53.6187 19.75 55.1526C17.2813 57.3 15.1211 57.3 12.9609 54.9992C11.418 53.4653 11.1094 53.4653 9.56641 54.0789C6.48047 55.306 5.40039 56.2263 4.01172 59.1407C2.77734 61.2881 2.46875 62.5152 2.46875 65.8898C2.46875 70.1846 3.54883 73.4058 6.32618 76.9337L7.71485 78.7744L9.87501 77.7006C12.8066 76.1667 13.8867 76.4735 15.584 78.621C17.127 81.0752 17.127 82.4557 15.8926 85.2166C14.3496 88.131 12.6524 88.898 10.1836 87.8242C9.10352 87.2107 8.17774 86.5971 8.17774 86.2904C8.17774 85.37 6.78907 85.9836 4.9375 87.6709C0.617188 91.6589 0.617188 96.7208 5.0918 102.243L6.63477 104.237L8.64063 102.396C11.8809 99.3284 13.2695 99.3284 14.9668 102.396C16.6641 105.924 15.584 112.827 13.1152 112.98C10.9551 113.133 8.94922 112.673 7.86914 112.06C6.78907 111.293 6.48047 111.446 5.70899 112.673C4.32031 114.667 4.16602 118.195 5.0918 120.496C6.17188 123.257 10.4922 125.251 15.8926 125.711C18.0527 125.864 20.5215 125.711 21.293 125.404C22.836 124.791 22.836 124.791 22.0645 122.95C20.6758 119.882 22.0645 116.201 24.9961 114.667C26.5391 113.9 29.1621 114.667 30.0879 116.201C30.7051 117.121 30.7051 117.121 32.5567 116.048C35.7969 114.207 37.0313 112.213 37.3399 108.532C37.8028 104.697 36.2598 100.402 34.4082 99.0216C33.1738 98.2546 33.0196 98.408 31.7852 99.9419C29.7793 102.089 27.7735 102.089 25.7676 99.7885C24.5332 98.2546 24.3789 97.6411 24.5332 95.1869C24.6875 93.4996 25.3047 91.9657 25.7676 91.1988C27.1563 89.8183 30.3965 89.8183 32.2481 91.1988L33.6367 92.2725L37.0313 89.8183C41.1973 86.5971 43.2032 83.2226 43.2032 79.0811C43.2032 76.6269 42.8946 75.86 41.1973 73.7125L39.0371 71.2583L37.3399 73.099C35.334 75.5532 34.0996 75.5532 31.6309 73.099C29.9336 71.4117 29.7793 71.1049 30.0879 68.8041C30.5508 65.583 31.3223 64.3559 33.3281 63.4355C34.8711 62.822 35.334 62.822 37.1856 63.5889C39.1914 64.3559 39.1914 64.3559 41.043 62.822C43.5117 60.8279 46.4434 56.0729 47.3692 52.6984C47.9864 50.3976 47.9864 49.9374 47.0606 48.4035L41.9688 38.8935L37.4942 30.6105C37.3399 30.3037 36.1055 29.997 35.0254 29.997C32.0938 29.8436 31.3223 28.6165 31.3223 24.7817C31.3223 22.0208 31.4766 21.2538 32.5567 20.4869C34.0996 19.2598 35.9512 19.1064 38.1114 20.1801C39.8086 21.1004 40.4258 22.9411 40.1172 25.3953C39.8086 26.6224 40.1172 27.0826 42.1231 28.6165C43.5117 29.5368 45.3633 31.0707 46.4434 31.991C47.3692 32.7579 49.375 34.4452 50.918 35.3655L53.8496 37.2062L55.084 36.1325C56.7813 34.5986 61.1016 34.5986 62.1817 36.2859C63.1075 37.6664 63.2618 41.1943 62.4903 42.7282C61.8731 43.9553 58.17 45.9493 56.627 45.9493C56.0098 45.9493 55.2383 45.4891 54.9297 45.029C53.0782 42.8815 52.6153 47.6366 54.4668 49.9374C55.3926 51.3179 55.7012 51.3179 56.4727 50.5509C58.9414 48.4035 63.1075 50.5509 63.1075 53.9255C63.1075 56.2263 61.5645 59.2941 60.1758 60.061C58.9414 60.6746 56.3184 59.7542 55.2383 58.2203C54.4668 57.1466 54.4668 57.1466 53.0782 58.067C49.5293 60.6746 49.0664 66.3499 52.3067 70.0312C54.7754 72.7922 55.8555 73.2524 57.2442 71.8719C58.4786 70.7982 60.6387 70.4914 61.7188 71.1049C64.0332 72.7922 64.8047 76.6269 63.2618 79.3879C62.336 81.3819 60.9473 82.1489 58.17 82.1489C56.627 82.1489 55.8555 81.6887 55.084 80.7684C54.0039 79.5413 54.0039 79.5413 52.461 80.4616C47.8321 83.2226 46.2891 86.2904 46.9063 91.0454C47.3692 93.4996 49.8379 97.9479 51.2266 98.408C51.5352 98.5614 52.461 97.9478 53.3868 97.0275C54.6211 95.8004 55.3926 95.647 56.4727 95.8004C58.7871 96.414 60.1758 98.2546 60.6387 101.322C61.1016 105.004 60.0215 106.231 56.1641 106.691C53.6953 106.998 53.3868 106.998 52.3067 105.617C51.3809 104.39 50.918 104.237 49.8379 104.544C46.1348 105.617 41.8145 111.139 41.8145 114.667C41.8145 119.882 46.5977 124.177 53.2325 125.098L56.0098 125.404L55.3926 124.024C54.7754 122.797 54.9297 122.183 55.7012 120.343C57.0899 117.428 58.4786 116.048 60.6387 116.048C62.0274 116.048 62.7989 116.508 63.8789 117.735C65.7305 120.036 65.8848 122.03 64.0332 124.024C62.6446 125.558 62.7989 125.711 64.959 126.325C67.2735 126.938 68.9708 126.785 74.6797 124.944C78.3829 123.717 79.4629 123.103 81.6231 120.956C84.8633 117.582 85.9434 115.587 86.252 111.753C86.7149 105.924 83.3204 99.0216 78.8458 97.1809C77.3028 96.5674 76.9942 96.7208 74.9883 98.5614C72.3653 100.862 71.2852 100.862 69.125 99.0216C67.5821 97.7945 67.4278 97.3343 67.4278 95.0335C67.4278 93.0394 67.7364 92.2725 68.9707 91.0454C70.8223 89.3581 73.9083 88.7446 75.7598 89.6649C76.9942 90.2784 77.3028 90.1251 79.9258 87.8242C83.1661 85.2166 83.7832 84.1429 84.709 80.7684C85.9434 76.0134 85.3262 71.5651 82.7032 68.1906L81.4688 66.3499L80.0801 67.577C78.5372 68.8041 74.834 68.9575 74.0625 67.8838C73.7539 67.577 73.1368 66.3499 72.9825 65.1228C71.2852 59.4475 76.8399 54.9992 81.3145 58.3737L82.7032 59.6008L85.6348 58.067C88.7208 56.3797 93.9669 51.3179 93.9669 50.0908C93.9669 49.784 93.504 49.0171 92.8868 48.7103C91.0352 47.6366 90.1094 44.7222 90.8809 42.268C91.8067 38.8935 92.7325 38.2799 96.127 38.4333L99.0587 38.5867L101.527 35.6723L107.082 29.23C111.711 24.0148 112.637 22.6343 113.717 20.3335C114.643 18.3395 118.5 15.1183 119.889 15.1183C120.815 15.1183 124.518 17.2657 124.518 17.8793C124.518 18.3395 121.277 24.3216 120.66 25.0885C120.352 25.3953 119.117 25.5487 117.883 25.5487C115.26 25.7021 115.414 25.5487 111.248 34.752L109.242 39.0468L110.631 40.5807C112.328 42.268 112.482 44.7222 111.094 46.7162C109.705 48.8637 107.854 49.4772 105.231 48.7103C103.225 48.2501 102.762 48.2501 101.373 49.4772C99.213 50.8577 96.8985 54.3856 95.8184 57.1466C94.7383 60.061 94.8926 64.816 96.127 66.9635C97.2071 68.9575 97.67 68.9575 100.756 68.1906C102.607 67.8838 105.231 68.9575 105.693 70.4914C106.465 72.332 106.002 74.6329 104.768 76.4735C102.916 79.6947 100.293 80.3082 97.9786 78.0074C97.2071 77.2405 96.4356 76.6269 95.9727 76.6269C94.8926 76.6269 91.1895 80.615 90.418 82.609C88.2579 87.6709 90.2637 93.653 94.8926 96.1072C98.9044 98.408 100.139 98.5614 101.065 96.8741C101.99 95.3403 104.613 94.4199 106.311 95.1869C106.928 95.4936 107.854 96.5674 108.471 97.4877C109.242 98.8682 109.242 99.4817 108.625 101.476C108.162 103.316 107.699 103.93 106.156 104.544C103.996 105.464 101.836 105.157 100.447 103.777C99.5215 103.01 99.2129 103.163 96.7442 105.771C93.1954 109.452 91.961 113.133 92.8868 117.428C93.6583 120.649 95.6641 123.87 98.1329 125.711C102.607 128.779 111.402 130.006 117.111 128.319ZM43.666 105.464C45.209 103.777 47.2149 102.089 47.9864 101.629L49.5293 100.862L48.4492 99.7885C45.8262 96.8741 43.8203 91.0454 44.2832 87.6709C44.5918 86.2904 44.5918 85.37 44.5918 85.37C44.4375 85.37 43.2032 86.4437 42.1231 87.9776C40.8887 89.3581 38.4199 91.3522 36.877 92.2725C34.0996 93.9598 32.8653 95.647 34.2539 95.647C34.4082 95.647 35.4883 96.2606 36.4141 97.0275C38.7285 98.8682 40.7344 103.316 40.7344 106.231V108.532L43.666 105.464ZM46.2891 80.4616C45.6719 82.1489 45.8262 82.1489 48.6035 79.6947C49.9922 78.3142 52.1524 76.9337 53.2325 76.6269L54.9297 76.0134L52.461 73.8659C49.0664 70.9516 47.8321 68.1906 47.8321 63.8957C47.8321 59.7542 48.6035 58.067 51.8438 55.306L54.1582 53.1585L50.6094 48.5569V50.7043C50.6094 53.9255 47.6778 59.1407 43.3574 63.4355C41.3516 65.4296 39.6543 67.577 39.6543 68.0372C39.6543 68.4973 40.2715 69.2643 41.043 69.7245C44.4375 71.5651 47.3692 77.5472 46.2891 80.4616ZM50.6094 46.1027C50.7637 44.8756 51.3809 43.1883 51.8438 42.4214C53.3868 40.1206 52.9239 39.2002 49.8379 37.2062C48.2949 36.2859 45.9805 34.5986 44.7461 33.5249C40.1172 29.23 39.8086 29.6902 43.5117 36.5926C45.3633 40.1206 47.3692 43.3417 47.8321 43.9553C48.295 44.5688 49.0664 45.7959 49.5293 46.7162L50.3008 48.2501L50.6094 46.1027ZM98.5958 48.7103C99.8301 47.3298 100.91 45.9493 100.756 45.6425C100.139 44.262 102.762 40.4273 104.459 40.1206C106.156 39.8138 106.774 39.0468 109.705 32.7579L111.711 28.0029L102.299 38.8935C101.373 40.1206 100.602 41.5011 100.602 42.268C100.602 43.0349 99.8301 44.5688 99.0587 45.4891C98.1329 46.4095 97.2071 48.0967 96.7442 49.1705L96.127 51.0111L98.5958 48.7103Z" fill="#FBC700"/>
</svg>
